# xmcd
#
# Track frame offsets: 
#        151
#        19928
#        44544
#        61720
#        93475
#        113027
#        130101
#        151129
#        167863
#        188488
#        207764
#        226665
#        243312
#
# Disc length: 3310 seconds
#
# Revision: 0
# Processed by: cddbd v1.5PL3 Copyright (c) Steve Scherf et al.
# Submitted via: ExactAudioCopy v0.95a4
#
DISCID=9b0cec0d
DTITLE=John Trudell - Fables And Other Realities
DYEAR=1991
DGENRE=Native American
TTITLE0=Fables And Other Realities
TTITLE1=Baby Dolls Blues
TTITLE2=Laughing
TTITLE3=What He'd Done
TTITLE4=Baby What's Happening
TTITLE5=Long Silky Caress
TTITLE6=The Dream
TTITLE7=Teddy Bear Tears
TTITLE8=The Needle
TTITLE9=Somebody's Kid
TTITLE10=Raven
TTITLE11=Fire In The Village
TTITLE12=Fables
EXTD=
EXTT0=
EXTT1=
EXTT2=
EXTT3=
EXTT4=
EXTT5=
EXTT6=
EXTT7=
EXTT8=
EXTT9=
EXTT10=
EXTT11=
EXTT12=
PLAYORDER=
